<svg width="246" height="60" viewBox="0 0 246 60" fill="none" xmlns="http://www.w3.org/2000/svg">
<g clip-path="url(#clip0_173_10)">
<path d="M61.4258 46.5168V15.9682H74.3872C76.2201 15.9682 77.8635 16.3976 79.3187 17.2555C80.7732 18.1141 81.9294 19.285 82.788 20.7686C83.6459 22.2525 84.0754 23.926 84.0754 25.7876C84.0754 27.6789 83.6459 29.3811 82.788 30.8933C81.9294 32.4066 80.7732 33.6065 79.3187 34.4937C77.8635 35.3817 76.2201 35.8248 74.3872 35.8248H67.972V46.5168H61.4258ZM67.8846 29.9333H73.6454C74.3434 29.9333 74.9687 29.7518 75.522 29.3877C76.0742 29.0243 76.5181 28.5368 76.8527 27.9258C77.1871 27.3148 77.355 26.6164 77.355 25.8309C77.355 25.0454 77.1871 24.3624 76.8527 23.7801C76.5181 23.1981 76.0742 22.7327 75.522 22.3833C74.9687 22.0342 74.3434 21.8597 73.6454 21.8597H67.8846V29.9333ZM88.2211 46.5168V14.2227H94.4183V46.5168H88.2211ZM108.034 46.9532C106.114 46.9532 104.382 46.4293 102.841 45.3823C101.298 44.3348 100.076 42.9097 99.175 41.1054C98.2727 39.3019 97.8219 37.2364 97.8219 34.9082C97.8219 32.5811 98.2804 30.5156 99.1967 28.7113C100.113 26.9077 101.357 25.4969 102.928 24.4782C104.499 23.4601 106.289 22.9509 108.296 22.9509C109.431 22.9509 110.47 23.1184 111.416 23.4527C112.361 23.7874 113.19 24.2456 113.904 24.8272C114.616 25.4095 115.22 26.0785 115.715 26.8346C116.209 27.5918 116.558 28.406 116.762 29.2785L115.453 29.0603V23.4307H121.606V46.5168H115.366V40.9742L116.762 40.8434C116.529 41.6583 116.151 42.4295 115.627 43.1566C115.104 43.884 114.456 44.531 113.685 45.0986C112.914 45.6659 112.049 46.1171 111.089 46.4514C110.129 46.7853 109.11 46.9532 108.034 46.9532ZM109.736 41.5852C110.899 41.5852 111.918 41.3093 112.791 40.7564C113.664 40.2038 114.34 39.4253 114.82 38.4216C115.3 37.4178 115.54 36.247 115.54 34.9082C115.54 33.5991 115.3 32.4503 114.82 31.4609C114.34 30.4719 113.664 29.6933 112.791 29.1261C111.918 28.5585 110.899 28.2748 109.736 28.2748C108.601 28.2748 107.605 28.5585 106.747 29.1261C105.888 29.6933 105.212 30.4719 104.717 31.4609C104.222 32.4503 103.975 33.5991 103.975 34.9082C103.975 36.247 104.222 37.4178 104.717 38.4216C105.212 39.4253 105.888 40.2038 106.747 40.7564C107.605 41.3093 108.601 41.5852 109.736 41.5852ZM134.436 46.9532C132.749 46.9532 131.301 46.5822 130.094 45.8404C128.886 45.0986 127.956 44.0369 127.301 42.6547C126.646 41.2729 126.319 39.6072 126.319 37.6578V23.4307H132.516V36.654C132.516 37.7015 132.691 38.6112 133.04 39.3816C133.389 40.1527 133.883 40.742 134.524 41.1491C135.163 41.5566 135.949 41.7601 136.88 41.7601C137.549 41.7601 138.167 41.651 138.735 41.4328C139.302 41.2145 139.797 40.9022 140.219 40.4944C140.64 40.0873 140.967 39.6072 141.201 39.0542C141.433 38.502 141.55 37.9054 141.55 37.265V23.4307H147.747V46.5168H141.855L141.637 41.7601L142.772 41.2362C142.423 42.313 141.84 43.2874 141.026 44.1603C140.211 45.0329 139.237 45.717 138.102 46.2115C136.968 46.7056 135.746 46.9532 134.436 46.9532ZM160.882 46.9532C158.729 46.9532 156.816 46.5965 155.143 45.8841C153.47 45.1714 152.125 44.1893 151.107 42.9383L154.991 39.6215C155.864 40.5815 156.852 41.2729 157.958 41.6943C159.064 42.1165 160.169 42.3274 161.275 42.3274C161.711 42.3274 162.111 42.2767 162.475 42.1745C162.839 42.0728 163.152 41.9276 163.413 41.7381C163.675 41.5492 163.872 41.3167 164.002 41.04C164.134 40.7637 164.199 40.4658 164.199 40.1454C164.199 39.5058 163.945 38.9978 163.413 38.6615C163.126 38.48 162.671 38.2904 162.06 38.0722C161.449 37.8539 160.664 37.614 159.704 37.3521C158.22 36.9744 156.961 36.5306 155.929 36.021C154.896 35.5125 154.074 34.9376 153.463 34.2972C152.94 33.6866 152.539 33.0249 152.263 32.3118C151.986 31.599 151.849 30.8062 151.849 29.9333C151.849 28.8858 152.081 27.9331 152.547 27.0749C153.012 26.217 153.659 25.4819 154.489 24.8709C155.318 24.2599 156.271 23.7874 157.347 23.4527C158.423 23.1184 159.558 22.9509 160.751 22.9509C161.944 22.9509 163.108 23.0967 164.243 23.387C165.377 23.6783 166.431 24.0928 167.406 24.631C168.381 25.1696 169.232 25.8022 169.959 26.5293L166.643 30.1952C166.119 29.7007 165.53 29.2499 164.875 28.8421C164.221 28.435 163.544 28.1154 162.846 27.8821C162.148 27.6495 161.522 27.5331 160.97 27.5331C160.474 27.5331 160.031 27.5768 159.639 27.6638C159.246 27.7513 158.918 27.8898 158.656 28.0786C158.395 28.2682 158.198 28.4931 158.068 28.755C157.936 29.017 157.871 29.3079 157.871 29.6279C157.871 29.9483 157.951 30.2536 158.111 30.5442C158.271 30.8356 158.496 31.0828 158.788 31.286C159.107 31.4609 159.58 31.6644 160.206 31.897C160.831 32.1303 161.682 32.3922 162.759 32.6825C164.155 33.0613 165.34 33.483 166.316 33.9482C167.29 34.414 168.068 34.9519 168.65 35.5629C169.145 36.0868 169.508 36.6834 169.741 37.3521C169.974 38.0218 170.091 38.7636 170.091 39.5778C170.091 41.0036 169.69 42.2693 168.89 43.3748C168.09 44.4807 166.992 45.3536 165.595 45.9932C164.199 46.6329 162.628 46.9532 160.882 46.9532ZM177.203 18.7177C176.01 18.7177 175.079 18.4198 174.41 17.8231C173.741 17.2269 173.407 16.3903 173.407 15.3135C173.407 14.3248 173.748 13.5176 174.432 12.8916C175.115 12.2663 176.039 11.9532 177.203 11.9532C178.396 11.9532 179.327 12.2519 179.996 12.8479C180.665 13.4445 181 14.2664 181 15.3135C181 16.3029 180.658 17.1177 179.975 17.7574C179.291 18.3977 178.367 18.7177 177.203 18.7177ZM174.148 46.5168V23.4307H180.345V46.5168H174.148ZM199.416 46.9532C198.398 46.9532 197.409 46.8074 196.449 46.5168C195.489 46.2262 194.616 45.8261 193.83 45.3165C193.045 44.808 192.39 44.2257 191.867 43.571C191.343 42.9163 191.008 42.2399 190.863 41.5419L192.259 41.018L191.954 46.4293H186.106V14.2227H192.347V28.8421L191.125 28.3623C191.299 27.6638 191.633 26.9875 192.128 26.3328C192.623 25.6784 193.248 25.0965 194.005 24.5873C194.761 24.0784 195.59 23.6783 196.492 23.387C197.394 23.0967 198.325 22.9509 199.285 22.9509C201.293 22.9509 203.089 23.4674 204.675 24.4998C206.26 25.5329 207.504 26.9515 208.406 28.755C209.308 30.5593 209.759 32.6248 209.759 34.9519C209.759 37.2801 209.315 39.3452 208.428 41.1491C207.54 42.9534 206.312 44.3716 204.74 45.4039C203.169 46.4371 201.395 46.9532 199.416 46.9532ZM197.933 41.6727C199.096 41.6727 200.107 41.389 200.966 40.8218C201.823 40.2541 202.5 39.4687 202.995 38.4649C203.489 37.4612 203.737 36.2907 203.737 34.9519C203.737 33.6429 203.497 32.4793 203.017 31.4609C202.537 30.4428 201.86 29.657 200.987 29.104C200.115 28.5518 199.096 28.2748 197.933 28.2748C196.769 28.2748 195.751 28.5518 194.878 29.104C194.005 29.657 193.328 30.4428 192.849 31.4609C192.368 32.4793 192.128 33.6429 192.128 34.9519C192.128 36.2907 192.368 37.4612 192.849 38.4649C193.328 39.4687 194.005 40.2541 194.878 40.8218C195.751 41.389 196.769 41.6727 197.933 41.6727ZM213.599 46.5168V14.2227H219.796V46.5168H213.599ZM235.724 46.9532C233.222 46.9532 231.033 46.4444 229.156 45.4256C227.28 44.4076 225.825 43.0111 224.793 41.2362C223.759 39.462 223.243 37.4252 223.243 35.1264C223.243 33.3228 223.534 31.6788 224.116 30.1952C224.698 28.7113 225.513 27.4239 226.56 26.3328C227.608 25.242 228.851 24.3984 230.291 23.8018C231.732 23.2059 233.295 22.9072 234.983 22.9072C236.554 22.9072 238.008 23.1981 239.347 23.7801C240.685 24.3624 241.841 25.1696 242.816 26.202C243.791 27.2351 244.54 28.4571 245.064 29.8679C245.588 31.2794 245.82 32.7993 245.762 34.4283L245.718 36.3484H227.171L226.167 32.5517H240.612L239.914 33.3372V32.3772C239.855 31.5917 239.601 30.8866 239.15 30.2606C238.699 29.6353 238.125 29.1408 237.427 28.7767C236.728 28.4133 235.943 28.2315 235.07 28.2315C233.789 28.2315 232.706 28.4787 231.819 28.9732C230.931 29.4681 230.255 30.1952 229.79 31.1552C229.324 32.1152 229.091 33.2791 229.091 34.6466C229.091 36.043 229.389 37.2507 229.986 38.2687C230.582 39.2875 231.426 40.0796 232.517 40.6473C233.608 41.2145 234.896 41.4981 236.379 41.4981C237.397 41.4981 238.328 41.3387 239.172 41.018C240.016 40.6983 240.918 40.1454 241.878 39.3595L244.845 43.5056C244.001 44.2624 243.071 44.8951 242.052 45.4039C241.034 45.9131 239.986 46.2985 238.91 46.5605C237.834 46.8221 236.772 46.9532 235.724 46.9532Z" fill="white"/>
<path d="M45.2456 22.6028C44.1545 33.0586 35.0129 40.8301 24.5003 40.8301H20.4525V50.4001C20.4525 55.702 16.1545 60.0001 10.8525 60.0001H3.35999C1.50432 60.0001 0 58.4958 0 56.6401V36.9376L5.03807 29.869C5.94988 28.5896 7.62603 28.1123 9.07506 28.7192L11.9408 29.9194C13.3853 30.5245 15.0562 30.0489 15.9656 28.7739L22.6828 19.3568C23.5899 18.085 25.2572 17.6117 26.6972 18.217L32.2171 20.5375C33.6601 21.1441 35.3308 20.6694 36.2394 19.3947L42.6988 10.3322C44.7236 13.8919 45.7133 18.1209 45.2456 22.6028Z" fill="url(#paint0_linear_173_10)"/>
<path d="M3.29209 28.8726C4.11538 27.7175 5.313 26.8291 6.70596 26.5612C7.79212 26.3523 8.86287 26.4619 9.85321 26.8767L12.7182 28.0767C12.8833 28.1458 13.0571 28.1808 13.2347 28.1808C13.6713 28.1808 14.0835 27.9684 14.3373 27.6125L20.9316 18.3677C21.7547 17.2137 22.952 16.3267 24.344 16.0594C25.4262 15.8516 26.4904 15.9605 27.4723 16.3732L32.9921 18.6937C33.1587 18.7637 33.3339 18.7992 33.5128 18.7992C33.948 18.7992 34.3585 18.5878 34.6108 18.2338L41.53 8.52606C37.8272 3.36444 31.7802 0 24.945 0H3.35999C1.50432 0 0 1.50432 0 3.35999V33.4916L3.29209 28.8726Z" fill="url(#paint1_linear_173_10)"/>
</g>
<defs>
<linearGradient id="paint0_linear_173_10" x1="14.8413" y1="22.5437" x2="27.4731" y2="44.6494" gradientUnits="userSpaceOnUse">
<stop stop-color="#909CF7"/>
<stop offset="1" stop-color="#4B38D8"/>
</linearGradient>
<linearGradient id="paint1_linear_173_10" x1="7.98379" y1="-1.35829" x2="21.001" y2="21.4218" gradientUnits="userSpaceOnUse">
<stop stop-color="#909CF7"/>
<stop offset="1" stop-color="#4B38D8"/>
</linearGradient>
<clipPath id="clip0_173_10">
<rect width="245.771" height="60" fill="white"/>
</clipPath>
</defs>
</svg>
